<!DOCTYPE svg PUBLIC "-//W3C//DTD SVG 1.1//EN" "http://www.w3.org/Graphics/SVG/1.1/DTD/svg11.dtd">
<!-- Uploaded to: SVG Repo, www.svgrepo.com, Transformed by: SVG Repo Mixer Tools -->
<svg fill="#F43B8D" height="800px" width="800px" version="1.1" id="Layer_1" xmlns="http://www.w3.org/2000/svg" xmlns:xlink="http://www.w3.org/1999/xlink" viewBox="0 0 512 512" xml:space="preserve" stroke="#F43B8D">
<g id="SVGRepo_bgCarrier" stroke-width="0"/>
<g id="SVGRepo_tracerCarrier" stroke-linecap="round" stroke-linejoin="round"/>
<g id="SVGRepo_iconCarrier"> <g> <g> <path d="M304.389,302.354h-11.651c-4.33,0-7.839,3.51-7.839,7.839c0,4.329,3.509,7.839,7.839,7.839h11.651 c4.329,0,7.839-3.51,7.839-7.839C312.228,305.864,308.72,302.354,304.389,302.354z"/> </g> </g> <g> <g> <path d="M417.564,302.354h-11.65c-4.33,0-7.839,3.51-7.839,7.839c0,4.329,3.509,7.839,7.839,7.839h11.651 c4.329,0,7.838-3.51,7.838-7.839C425.403,305.864,421.894,302.354,417.564,302.354z"/> </g> </g> <g> <g> <path d="M318.84,271.914c-4.329,0-7.839,3.51-7.839,7.839v11.018c0,4.329,3.509,7.839,7.839,7.839c4.33,0,7.839-3.51,7.839-7.839 v-11.018C326.679,275.424,323.171,271.914,318.84,271.914z"/> </g> </g> <g> <g> <path d="M390.081,271.914c-4.33,0-7.839,3.51-7.839,7.839v11.018c0,4.329,3.509,7.839,7.839,7.839c4.33,0,7.839-3.51,7.839-7.839 v-11.018C397.92,275.424,394.412,271.914,390.081,271.914z"/> </g> </g> <g> <g> <path d="M378.846,313.665h-48.772c-6.09,0-11.047,4.959-11.047,11.055v5.146c0,14.253,11.576,25.849,25.805,25.849h19.255 c14.229,0,25.805-11.595,25.805-25.849v-5.146C389.892,318.625,384.937,313.665,378.846,313.665z M374.215,329.866 c0,5.609-4.543,10.171-10.127,10.171h-19.255c-5.585,0-10.127-4.562-10.127-10.171v-0.523h39.509V329.866z"/> </g> </g> <g> <g> <path d="M332.223,14.464C322.924,5.134,310.57,0,297.42,0c-0.025,0-0.053,0-0.078,0C285.6,0.024,274.494,4.145,265.64,11.69 c-8.858-7.494-19.945-11.573-31.66-11.573c-0.027,0-0.059,0-0.086,0c-13.171,0.026-25.539,5.207-34.825,14.589 c-9.276,9.369-14.372,21.81-14.347,35.03c0.024,13.218,5.163,25.638,14.472,34.973l55.448,55.643 c2.955,2.961,7.037,4.657,11.195,4.657c0.014,0,0.026,0,0.04,0c4.188-0.005,8.282-1.72,11.233-4.704l36.151-36.543 c3.046-3.077,3.02-8.041-0.059-11.085c-3.076-3.045-8.04-3.019-11.086,0.06l-36.155,36.546c-0.031,0.032-0.069,0.05-0.115,0.05 c-0.026,0-0.068-0.015-0.105-0.05l-55.446-55.64c-6.366-6.384-9.881-14.884-9.898-23.933c-0.017-9.051,3.467-17.564,9.811-23.972 c6.329-6.393,14.75-9.924,23.712-9.942c0.02,0,0.039,0,0.059,0c8.945,0,17.356,3.498,23.695,9.857 c5.151,5.848,10.892,5.833,15.981-0.032c6.331-6.392,14.752-9.923,23.713-9.941c0.019,0,0.036,0,0.054,0 c8.948,0,17.361,3.498,23.698,9.855c6.368,6.384,9.885,14.883,9.901,23.93c0.017,9.054-3.468,17.567-9.812,23.973 c-3.047,3.076-3.023,8.04,0.054,11.085c3.075,3.047,8.039,3.023,11.085-0.054c9.278-9.369,14.375-21.81,14.35-35.033 C346.675,36.217,341.534,23.798,332.223,14.464z"/> </g> </g> <g> <g> <path d="M135.848,258.111c-4.33,0-7.839,3.51-7.839,7.839v11.274c0,4.329,3.509,7.839,7.839,7.839c4.329,0,7.839-3.51,7.839-7.839 V265.95C143.687,261.621,140.178,258.111,135.848,258.111z"/> </g> </g> <g> <g> <path d="M208.741,258.111c-4.33,0-7.839,3.51-7.839,7.839v11.274c0,4.329,3.509,7.839,7.839,7.839c4.329,0,7.839-3.51,7.839-7.839 V265.95C216.58,261.621,213.07,258.111,208.741,258.111z"/> </g> </g> <g> <g> <path d="M197.244,300.829h-49.902c-6.132,0-11.122,4.993-11.122,11.129v5.265c0,14.482,11.764,26.266,26.224,26.266h19.698 c14.461,0,26.224-11.783,26.224-26.266v-5.265C208.366,305.822,203.378,300.829,197.244,300.829z M192.688,317.223 c0,5.837-4.731,10.588-10.546,10.588h-19.698c-5.814,0-10.545-4.749-10.545-10.588v-0.716h40.789V317.223z"/> </g> </g> <g> <g> <path d="M469.839,361.64c0-4.329-3.509-7.839-7.839-7.839c-4.329,0-7.839,3.51-7.839,7.839v24.316 c0,15.528-3.649,30.46-10.659,43.937c-9.181-20.629-28.234-35.896-50.775-39.909v-15.397 c32.554-12.055,54.814-43.656,54.814-78.832v-43.923c0-4.329-3.509-7.839-7.839-7.839h-34.438l-9.831-17.06 c-1.4-2.429-3.989-3.925-6.792-3.925c-2.803,0-5.392,1.497-6.792,3.926l-9.829,17.059H269.463c-0.778,0-1.527,0.117-2.236,0.327 V210.62c0-4.681-0.39-9.271-1.114-13.75c15.963-30.45,47.848-51.278,84.516-51.278h8.131c52.604,0,95.401,42.846,95.401,95.511 v89.181c-0.002,4.329,3.508,7.839,7.837,7.839c4.33,0,7.839-3.51,7.839-7.839v-89.181c0-61.31-49.83-111.189-111.079-111.189 h-8.131c-37.252,0-70.266,18.462-90.427,46.714c-13.163-30.434-43.423-51.785-78.576-51.785h-18.661 c-47.2,0-85.6,38.479-85.6,85.776v38.77c-13.043,3.401-22.699,15.298-22.699,29.414c0,15.611,11.816,28.505,26.958,30.194 c8.153,24.897,27.386,44.797,51.828,53.829v5.092l-1.989-1.149c-4.338-2.504-9.957-2.502-14.289-0.001 c-4.413,2.544-7.153,7.287-7.153,12.379v20.831H80.971c-21.399,0-38.809,17.44-38.809,38.877v61.185 c0,6.594,5.361,11.958,11.951,11.958h44.062c4.33,0,7.839-3.51,7.839-7.839s-3.509-7.839-7.839-7.839H57.839v-57.465 c0-12.792,10.377-23.199,23.131-23.199h29.049v16.784c0,5.089,2.738,9.832,7.15,12.379c4.338,2.503,9.95,2.504,14.292,0l27-15.584 c1.867,1.097,3.88,1.969,5.992,2.605v64.481h-33.879c-4.33,0-7.839,3.51-7.839,7.839s3.509,7.839,7.839,7.839h306.686 c0.413,0,0.82-0.021,1.223-0.063c5.984-0.608,10.675-5.636,10.77-11.758c0.001-0.061,0.009-0.118,0.009-0.179v-0.008v-13.355 v-29.165c0-2.194-0.119-4.408-0.334-6.617c13.68-18.987,20.91-41.352,20.91-64.9V361.64z M70.343,278.804 c0-5.302,2.818-9.944,7.021-12.534v16.053c0,3.152,0.183,6.261,0.515,9.325C73.389,289.131,70.343,284.32,70.343,278.804z M289.924,278.804c0-7.25-2.56-13.903-6.805-19.132h93.429c2.803,0,5.392-1.497,6.792-3.926l5.3-9.198l5.3,9.198 c1.4,2.429,3.989,3.925,6.792,3.925h31.129v36.084c0,30.246-20.215,57.238-49.16,65.641c-3.35,0.972-5.654,4.041-5.654,7.529 v11.235c-0.073,0.432-0.12,5.558-0.12,5.558c0,8.54-4.716,15.99-11.658,19.847c-3.24-2.034-7.055-3.229-11.152-3.229 c-3.951,0-7.638,1.113-10.801,3.014c-6.119-3.544-10.444-9.89-11.199-17.302v-9.339c4.362,0.694,8.782,1.057,13.226,1.057 c4.33,0,7.839-3.51,7.839-7.839s-3.509-7.839-7.839-7.839c-6.314,0-12.564-0.873-18.591-2.582 c-0.098-0.033-0.189-0.081-0.289-0.11c-26.566-7.713-45.765-31.085-48.746-58.256 C285.119,297.595,289.924,288.754,289.924,278.804z M359.515,423.439c0,2.991-2.422,5.426-5.399,5.426 c-2.979,0-5.402-2.434-5.402-5.426s2.423-5.425,5.402-5.425C357.094,418.014,359.515,420.449,359.515,423.439z M267.225,282.323 v-16.052c4.202,2.59,7.021,7.232,7.021,12.533c0,5.517-3.046,10.327-7.535,12.844 C267.042,288.584,267.225,285.474,267.225,282.323z M255.225,326.026c3.075-5.182,5.623-10.712,7.565-16.52 c4.934,29.451,25.406,54.623,53.647,65.082v15.398c-12.269,2.188-23.508,7.726-32.687,15.646 c-5.873-3.585-12.767-5.651-20.133-5.651h-7.372c-0.675-4.603-1.021-9.285-1.021-14.023V326.026z M162.964,140.523h18.661 c38.555,0,69.922,31.446,69.922,70.098v11.331c-4.799,2.642-10.151,4.046-15.7,4.046c-10.028,0-19.373-4.525-25.638-12.413 c-1.487-1.872-3.747-2.963-6.138-2.963s-4.651,1.091-6.138,2.963c-6.265,7.889-15.611,12.413-25.638,12.413 s-19.371-4.525-25.639-12.414c-1.487-1.872-3.747-2.963-6.137-2.963c-2.391,0-4.651,1.091-6.138,2.963 c-6.266,7.889-15.611,12.413-25.638,12.413c-5.55,0-10.902-1.404-15.699-4.045v-11.331h-0.001 C93.042,171.969,124.409,140.523,162.964,140.523z M93.042,282.323V239.06c5.008,1.72,10.292,2.615,15.699,2.615 c11.841,0,23.034-4.257,31.776-11.901c8.744,7.644,19.937,11.901,31.776,11.901c11.841,0,23.033-4.257,31.776-11.901 c8.743,7.644,19.935,11.901,31.776,11.901c5.408,0,10.691-0.895,15.7-2.616v43.264c0,38.651-31.368,70.095-69.922,70.095h-18.661 C124.408,352.419,93.042,320.974,93.042,282.323z M227.412,366.767c-4.342-2.502-9.951-2.499-14.286,0.003l-1.987,1.147v-5.091 c10.612-3.922,20.24-9.895,28.409-17.434v40.563c0,4.728,0.298,9.408,0.878,14.023h-5.858v-20.831 C234.567,374.058,231.828,369.315,227.412,366.767z M197.211,394.058l21.677-12.511v48.497l-21.876-12.626 c1.734-3.602,2.707-7.639,2.707-11.9C199.719,401.43,198.817,397.549,197.211,394.058z M125.698,430.046v-48.5l21.678,12.512 c-1.607,3.491-2.508,7.372-2.508,11.462c0,4.26,0.973,8.298,2.707,11.9L125.698,430.046z M157.989,382.082l-8.86-5.114v-9.992 c4.504,0.737,9.125,1.121,13.834,1.121h18.661c4.71,0,9.332-0.385,13.836-1.121v9.991l-8.862,5.115 c-4.167-2.564-9.067-4.045-14.306-4.045C167.055,378.037,162.156,379.518,157.989,382.082z M160.545,405.519 c0-6.51,5.27-11.805,11.748-11.805c6.478,0,11.748,5.295,11.748,11.805s-5.27,11.806-11.748,11.806 C165.815,417.324,160.545,412.029,160.545,405.519z M286.749,496.322H180.132v-64.481c2.112-0.635,4.125-1.507,5.992-2.605 l27.002,15.584c2.17,1.252,4.641,1.914,7.146,1.914c2.505,0,4.977-0.662,7.151-1.917c4.407-2.547,7.143-7.29,7.143-12.376v-16.784 h29.051c12.755,0,23.131,10.407,23.131,23.199V496.322z M295.267,416.398c7.438-6.017,16.488-10.056,26.292-11.335 c3.026,5.18,7.231,9.577,12.239,12.831c-0.483,1.77-0.762,3.623-0.762,5.544c0,11.636,9.456,21.104,21.08,21.104 c11.622,0,21.078-9.467,21.078-21.104c0-1.782-0.246-3.503-0.664-5.157c5.279-3.296,9.691-7.857,12.839-13.248 c22.846,2.868,41.589,20.682,45.547,43.574c0.002,0.043-0.002,0.085,0,0.129c-9.25-8.739-21.68-14.109-35.338-14.109 c-17.806,0-33.787,9.117-43.118,23.304c-9.327-14.187-25.309-23.304-43.116-23.304c-3.096,0-6.124,0.286-9.07,0.817 C301.656,428.391,299.15,421.874,295.267,416.398z M433.584,496.322H302.427v-44.881c2.852-0.739,5.839-1.136,8.917-1.136 c17.385,0,32.274,12.506,35.402,29.737c0.676,3.728,3.923,6.438,7.711,6.438c0.001,0,0.001,0,0.001,0 c3.789,0,7.035-2.71,7.713-6.437c3.131-17.232,18.022-29.739,35.406-29.739c19.854,0,36.006,16.299,36.006,36.333V496.322z"/> </g> </g> </g>
</svg>